<svg id="Layer_1" data-name="Layer 1" xmlns="http://www.w3.org/2000/svg" xmlns:xlink="http://www.w3.org/1999/xlink" viewBox="0 0 140 140"><defs><radialGradient id="radial-gradient" cx="79.1" cy="159.71" r="131.28" gradientTransform="matrix(1, 0, 0, -1, 0, 240)" gradientUnits="userSpaceOnUse"><stop offset="0" stop-color="#f15a22"/><stop offset="1" stop-color="#ed1164"/></radialGradient></defs><title>Loop_Logo</title><g id="Layer_1-2" data-name="Layer 1"><path d="M151.2,189.1H73.7a31.28,31.28,0,0,1-31.3-31.3V80.4A31.28,31.28,0,0,1,73.7,49.1h77.4a31.28,31.28,0,0,1,31.3,31.3v77.4A31.13,31.13,0,0,1,151.2,189.1Z" transform="translate(-42.4 -49.1)" style="fill:url(#radial-gradient)"/><path d="M157.3,95.3v47.5A10.24,10.24,0,0,1,147.1,153H89.8L67.7,169.1V95.3A10.24,10.24,0,0,1,77.9,85.1h69.3A10.29,10.29,0,0,1,157.3,95.3Zm-22.7,24a3.8,3.8,0,1,0-7.6,0,14.4,14.4,0,0,1-28.8,0,3.8,3.8,0,0,0-7.6,0,22,22,0,0,0,44,0Z" transform="translate(-42.4 -49.1)" style="fill:#fff"/></g></svg>